# Blender v2.91.0 OBJ File: ''
# www.blender.org
mtllib conic_rock_.mtl
o Cone.001_Material.001_0
v -0.877104 0.020912 0.072189
v -0.830936 -0.092670 -0.034432
v -0.893987 -0.078984 0.164698
v 0.151755 0.111540 -0.633618
v 0.260339 -0.130022 -0.577914
v -0.023306 -0.134688 -0.645798
v 0.624759 -0.040144 0.729842
v 0.799160 -0.080978 0.135688
v 0.796170 0.158434 0.215710
v 0.754306 0.244741 0.380714
v -0.171221 0.623327 -0.476049
v -0.125943 0.875303 -0.394507
v -0.121595 0.881460 -0.393004
v -0.073228 0.598534 -0.499538
v -0.125943 0.875303 -0.394507
v -0.171221 0.623327 -0.476049
v -0.265038 0.424071 -0.495119
v -0.285309 0.845253 -0.283709
v 0.479232 -0.028875 0.893812
v 0.369419 0.140355 0.906818
v 0.065649 0.209446 0.917756
v -0.134752 -0.027954 0.907215
v -0.692618 -0.053544 0.534868
v -0.134752 -0.027954 0.907215
v 0.065649 0.209446 0.917756
v -0.088172 1.036893 0.364511
v 0.106066 1.540519 -0.028756
v 0.138856 1.102595 -0.303042
v -0.043960 1.027138 -0.335848
v 0.199389 1.409323 -0.117332
v 0.137727 1.537660 -0.032958
v 0.383942 1.020208 0.283559
v 0.065649 0.209446 0.917756
v 0.369419 0.140355 0.906818
v -0.088172 1.036893 0.364511
v 0.137727 1.537660 -0.032958
v 0.032038 1.509121 0.007922
v 0.106066 1.540519 -0.028756
v -0.073228 0.598534 -0.499538
v 0.138856 1.102595 -0.303042
v 0.121843 0.382367 -0.577385
v -0.121595 0.881460 -0.393004
v -0.043960 1.027138 -0.335848
v -0.389832 0.939164 -0.114681
v -0.125943 0.875303 -0.394507
v -0.285309 0.845253 -0.283709
v -0.121595 0.881460 -0.393004
v -0.043960 1.027138 -0.335848
v 0.032038 1.509121 0.007922
v 0.106066 1.540519 -0.028756
v 0.479232 -0.028875 0.893812
v 0.383942 1.020208 0.283559
v 0.369419 0.140355 0.906818
v 0.624759 -0.040144 0.729842
v 0.754306 0.244741 0.380714
v 0.796170 0.158434 0.215710
v 0.383942 1.020208 0.283559
v 0.754306 0.244741 0.380714
v 0.137727 1.537660 -0.032958
v 0.199389 1.409323 -0.117332
v -0.389832 0.939164 -0.114681
v -0.830936 -0.092670 -0.034432
v -0.877104 0.020912 0.072189
v -0.403636 -0.129589 -0.571615
v -0.285309 0.845253 -0.283709
v -0.265038 0.424071 -0.495119
v -0.088172 1.036893 0.364511
v -0.893987 -0.078984 0.164698
v -0.692618 -0.053544 0.534868
v 0.032038 1.509121 0.007922
v -0.877104 0.020912 0.072189
v -0.389832 0.939164 -0.114681
v -0.830936 -0.092670 -0.034432
v -0.692618 -0.053544 0.534868
v -0.893987 -0.078984 0.164698
v -0.403636 -0.129589 -0.571615
v -0.134752 -0.027954 0.907215
v -0.023306 -0.134688 -0.645798
v 0.479232 -0.028875 0.893812
v 0.260339 -0.130022 -0.577914
v 0.799160 -0.080978 0.135688
v 0.624759 -0.040144 0.729842
v -0.265038 0.424071 -0.495119
v -0.023306 -0.134688 -0.645798
v -0.403636 -0.129589 -0.571615
v 0.151755 0.111540 -0.633618
v 0.121843 0.382367 -0.577385
v -0.073228 0.598534 -0.499538
v -0.171221 0.623327 -0.476049
v 0.799160 -0.080978 0.135688
v 0.199389 1.409323 -0.117332
v 0.796170 0.158434 0.215710
v 0.260339 -0.130022 -0.577914
v 0.138856 1.102595 -0.303042
v 0.121843 0.382367 -0.577385
v 0.151755 0.111540 -0.633618
vt 0.461633 0.734282
vt 0.525644 0.706884
vt 0.526364 0.754788
vt 0.326510 0.566778
vt 0.803402 0.576140
vt 0.406096 0.559810
vt 0.830927 0.890742
vt 0.870147 0.747809
vt 0.688806 0.770908
vt 0.692178 0.811837
vt 0.218992 0.612927
vt 0.210852 0.636598
vt 0.211910 0.637059
vt 0.230461 0.606895
vt 0.210852 0.636598
vt 0.218992 0.612927
vt 0.286795 0.605082
vt 0.172650 0.662632
vt 0.829809 0.930188
vt 0.752807 0.936087
vt 0.289169 0.939843
vt 0.302185 0.933412
vt 0.326848 0.843838
vt 0.302185 0.933412
vt 0.289169 0.939843
vt 0.280771 0.820992
vt 0.275354 0.735118
vt 0.279263 0.662238
vt 0.231550 0.653141
vt 0.308016 0.711751
vt 0.285935 0.734065
vt 0.337059 0.801335
vt 0.289169 0.939843
vt 0.339686 0.936087
vt 0.280771 0.820992
vt 0.285935 0.734065
vt 0.254868 0.743384
vt 0.275354 0.735118
vt 0.230461 0.606895
vt 0.279263 0.662238
vt 0.292800 0.584699
vt 0.211910 0.637059
vt 0.231550 0.653141
vt 0.147839 0.704649
vt 0.210852 0.636598
vt 0.172650 0.662632
vt 0.211910 0.637059
vt 0.231550 0.653141
vt 0.254868 0.743384
vt 0.275354 0.735118
vt 0.829809 0.930188
vt 0.335477 0.801335
vt 0.752807 0.936087
vt 0.830927 0.890742
vt 0.692178 0.811837
vt 0.688806 0.770908
vt 0.335477 0.801335
vt 0.692178 0.811837
vt 0.281195 0.734065
vt 0.300390 0.711751
vt 0.147839 0.704649
vt 0.525644 0.706884
vt 0.461633 0.734282
vt 0.644048 0.577656
vt 0.172650 0.662632
vt 0.332254 0.605082
vt 0.280771 0.820992
vt 0.469927 0.754788
vt 0.326848 0.843838
vt 0.254868 0.743384
vt 0.461633 0.734282
vt 0.147839 0.704649
vt 0.541496 0.706884
vt 0.574693 0.843838
vt 0.526364 0.754788
vt 0.644048 0.577656
vt 0.708581 0.933412
vt 0.735328 0.559810
vt 0.855937 0.930188
vt 0.803402 0.576140
vt 0.932720 0.747809
vt 0.890863 0.890742
vt 0.286795 0.605082
vt 0.406096 0.559810
vt 0.497351 0.577656
vt 0.326510 0.566778
vt 0.292800 0.584699
vt 0.230461 0.606895
vt 0.213988 0.612927
vt 0.870147 0.747809
vt 0.308016 0.711751
vt 0.857414 0.770908
vt 0.424555 0.576140
vt 0.279263 0.662238
vt 0.292800 0.584699
vt 0.326510 0.566778
vn -0.9496 -0.1109 -0.2931
vn 0.2330 -0.1179 -0.9653
vn 0.9546 -0.0837 0.2859
vn -0.1411 0.3277 -0.9342
vn -0.1410 0.3277 -0.9342
vn -0.5789 0.3434 -0.7396
vn 0.0217 -0.0626 0.9978
vn -0.5202 0.4058 0.7515
vn -0.0650 0.5262 -0.8479
vn 0.1585 0.5690 0.8069
vn 0.0210 0.3555 -0.9345
vn -0.5463 0.5418 -0.6388
vn 0.6969 0.4068 0.5906
vn 0.9022 0.4313 0.0033
vn -0.7442 0.2707 -0.6106
vn -0.7784 0.4923 0.3896
vn -0.0000 -0.9976 0.0686
vn -0.1860 0.1800 -0.9659
vn 0.7733 0.2096 -0.5983
vn -0.5463 0.5417 -0.6388
usemtl Material.002
s off
f 1/1/1 2/2/1 3/3/1
f 4/4/2 5/5/2 6/6/2
f 7/7/3 8/8/3 9/9/3
f 7/7/3 9/9/3 10/10/3
f 11/11/4 12/12/4 13/13/4
f 11/11/5 13/13/5 14/14/5
f 15/15/6 16/16/6 17/17/6
f 15/15/6 17/17/6 18/18/6
f 19/19/7 20/20/7 21/21/7
f 19/19/7 21/21/7 22/22/7
f 23/23/8 24/24/8 25/25/8
f 23/23/8 25/25/8 26/26/8
f 27/27/9 28/28/9 29/29/9
f 28/28/9 27/27/9 30/30/9
f 30/30/9 27/27/9 31/31/9
f 32/32/10 33/33/10 34/34/10
f 33/33/10 32/32/10 35/35/10
f 35/35/10 32/32/10 36/36/10
f 35/35/10 36/36/10 37/37/10
f 37/37/10 36/36/10 38/38/10
f 39/39/11 40/40/11 41/41/11
f 40/40/11 39/39/11 42/42/11
f 40/40/11 42/42/11 43/43/11
f 44/44/12 45/45/12 46/46/12
f 47/47/12 44/44/12 48/48/12
f 48/48/12 44/44/12 49/49/12
f 48/48/12 49/49/12 50/50/12
f 51/51/13 52/52/13 53/53/13
f 52/52/13 51/51/13 54/54/13
f 52/52/13 54/54/13 55/55/13
f 56/56/14 57/57/14 58/58/14
f 57/57/14 56/56/14 59/59/14
f 59/59/14 56/56/14 60/60/14
f 61/61/15 62/62/15 63/63/15
f 62/62/15 61/61/15 64/64/15
f 64/64/15 61/61/15 65/65/15
f 64/64/15 65/65/15 66/66/15
f 67/67/16 68/68/16 69/69/16
f 68/68/16 67/67/16 70/70/16
f 68/68/16 70/70/16 71/71/16
f 71/71/16 70/70/16 72/72/16
f 73/73/17 74/74/17 75/75/17
f 74/74/17 73/73/17 76/76/17
f 74/74/17 76/76/17 77/77/17
f 77/77/17 76/76/17 78/78/17
f 77/77/17 78/78/17 79/79/17
f 79/79/17 78/78/17 80/80/17
f 79/79/17 80/80/17 81/81/17
f 79/79/17 81/81/17 82/82/17
f 83/83/18 84/84/18 85/85/18
f 84/84/18 83/83/18 86/86/18
f 86/86/18 83/83/18 87/87/18
f 87/87/18 83/83/18 88/88/18
f 88/88/18 83/83/18 89/89/18
f 90/90/19 91/91/19 92/92/19
f 91/91/19 90/90/19 93/93/19
f 91/91/19 93/93/19 94/94/19
f 94/94/19 93/93/19 95/95/19
f 95/95/19 93/93/19 96/96/19
s 1
f 45/45/20 44/44/20 47/47/20
